<svg xmlns="http://www.w3.org/2000/svg" viewBox="0 0 81.63 81.57"><title>leed</title><g id="Capa_2" data-name="Capa 2"><g id="Layer_1" data-name="Layer 1"><path d="M69.17,29.61a6,6,0,0,0,1.7-.74.89.89,0,0,0,.28-1.26,5.44,5.44,0,0,0-1-.92,16.6,16.6,0,0,0-1.81,1,1.11,1.11,0,0,0,.87,1.93ZM48.81,11.54a2,2,0,0,0,.46-2c-.22-.72-.85-.85-1.57-1l-.76,3.19C47.63,11.94,48.29,12.12,48.81,11.54ZM78.05,34.31C74.61,13.37,54-.56,33.25,3.75A37.64,37.64,0,0,0,3.15,37.7a36.87,36.87,0,0,0,9.91,28.74,7.7,7.7,0,0,1,2.13,3.16s.07,0,.11.07c.85-.21.85-.21,1.55.36A36.78,36.78,0,0,0,36,78.27,37.43,37.43,0,0,0,64.87,70a4.86,4.86,0,0,1,1-.49l.17.14a6.53,6.53,0,0,1,.31-.75,3.19,3.19,0,0,1,.5-.71C76.36,58.77,80.22,47.45,78.05,34.31ZM74,32.47c-1.07.24-2.11.42-3.12.72a1.69,1.69,0,0,0-1,.76c-.32.73.37,1.4,1.23,1.24s1.81-.39,2.72-.58l.6-.1.27,1.09c-1.3.25-2.55.57-3.81.72a1.86,1.86,0,0,1-2.14-1.64A1.88,1.88,0,0,1,70,32.28c1.19-.39,2.44-.61,3.75-.93Zm-3.51-6.66a2.08,2.08,0,0,1,1.83,1.5,2.13,2.13,0,0,1-.5,2.26,3.65,3.65,0,0,1-2.52,1.18A2.23,2.23,0,0,1,67,29.42a2.07,2.07,0,0,1,.36-2.4A3.49,3.49,0,0,1,70.45,25.81Zm-6-3.1a3.55,3.55,0,0,1,2.77-1.86,2.09,2.09,0,0,1,2.12,1.07,1.86,1.86,0,0,1,0,2.2l-1-.42a1.18,1.18,0,0,0-.34-1.54,1.5,1.5,0,0,0-1.71.18,2.62,2.62,0,0,0-.49.37,1.26,1.26,0,0,0-.51,1.37,1.15,1.15,0,0,0,1.3.81v1.05a1.93,1.93,0,0,1-2-.88A2.06,2.06,0,0,1,64.46,22.7ZM61.1,14.51A2.26,2.26,0,0,1,64,16.31a4.48,4.48,0,0,1,0,.83l-1-.16c0-.19,0-.36-.05-.53a1.12,1.12,0,0,0-1.29-.91,2.43,2.43,0,0,0-1.69,1.93,1.64,1.64,0,0,0,.57,1c.21.18.65.08,1,.11l0-.22-.53-.56.67-.78,1.51,1.28c-.26.29-.44.52-.65.72a2,2,0,0,1-2.64.43,2.2,2.2,0,0,1-1-2.7A3.5,3.5,0,0,1,61.1,14.51Zm-4.26-3.13c0,1,0,2,0,3l.24,0,1.57-2.7.94.52L56.89,17a1.09,1.09,0,0,1-1-1.22,16.82,16.82,0,0,0-.25-3l-1.59,2.72-.93-.54,2.69-4.71C56.48,10.35,56.88,10.63,56.85,11.38Zm-4-2.49,1,.4-2,5.12-1-.4ZM46.87,7.19c1.32.37,2.83.33,3.43,1.85a3,3,0,0,1-.63,3.23c-1.21,1.3-2.62.64-4.08.28Zm-5.73-.51,1.11.07L42,11.13l2.57.21-.08,1.07-3.68-.2Zm-2.06.11.37,5.46-1.12.11L38,6.85ZM64.93,35.72a24,24,0,0,1-5.38,21.09.89.89,0,0,1-1,.35c-3.08-.51-6.17-1-9.26-1.44l-.43-.09c.37-.16.55-.27.75-.33,1.75-.54,3.49-1.1,5.26-1.59A10.58,10.58,0,0,0,60,50.65a4,4,0,0,0,.81-1.39,1.36,1.36,0,0,0-1.6-1.82c-.33.05-.66.18-1,.22a.57.57,0,0,1-.47-.15.49.49,0,0,1,.09-.47,9,9,0,0,1,1.15-.8,33,33,0,0,0,2.91-1.7A2.1,2.1,0,0,0,62.66,42c-.28-.78-.71-1-1.48-.67a3.76,3.76,0,0,1-1,.37,1.55,1.55,0,0,1-.89-.32c-.06,0,.07-.5.22-.68.45-.54,1-1,1.43-1.55a5.09,5.09,0,0,0,1.46-3.07c.09-1.06-.32-1.48-1.36-1.3-.56.1-.76-.2-.77-.67s.06-.86.06-1.29a2.49,2.49,0,0,0-2.67-2.66,1.35,1.35,0,0,0-1.34,1.29c-.08.53-.06,1.08-.1,1.62,0,.25-.08.5-.16,1-.34-.42-.56-.66-.75-.92a1.18,1.18,0,0,0-1.39-.59A1.23,1.23,0,0,0,53,33.92c.11.85.37,1.67.55,2.51.14.68.27,1.37.35,2.07,0,.21-.15.45-.24.67a2.28,2.28,0,0,1-.58-.36c-.44-.52-.83-1.08-1.27-1.6s-1.09-.59-1.36.22a5.37,5.37,0,0,0-.32,2.11c.14,1.48.44,3,.66,4.43a6.17,6.17,0,0,1,.05,1.22,1.56,1.56,0,0,1-.25.52,2,2,0,0,1-.54-.33c-.22-.26-.36-.58-.55-.86a2.87,2.87,0,0,0-.55-.68,1.09,1.09,0,0,0-1.39-.08A1,1,0,0,0,47.31,45c.3.88.61,1.75.9,2.63a7,7,0,0,1-.14,5.3c-.07.16-.12.33-.18.5A35.07,35.07,0,0,0,57.57,36.6l.27.1a4.68,4.68,0,0,1-.06.81A34.54,34.54,0,0,1,47.57,55.09a1.7,1.7,0,0,1-1.08.37A36.56,36.56,0,0,1,42,55.15a8.8,8.8,0,0,1,.89-.9c1.11-.85,2.27-1.64,3.37-2.51a4.49,4.49,0,0,0,1-1.14c.78-1.23.37-2.2-1-2.7a3.06,3.06,0,0,1-1.38-1,1.87,1.87,0,0,1,.74-2.73,7.89,7.89,0,0,0,3.69-5.38,4,4,0,0,0,.08-.88c0-1.33-.72-1.91-2-1.67-.51.1-1,.29-1.51.4-.72.15-1.08-.21-.86-.9a12.12,12.12,0,0,1,.87-2,11.33,11.33,0,0,0,1.62-5.13c0-.78,0-1.63-.77-2.05s-1.41.17-2,.62a8.4,8.4,0,0,1-1,.65c-.41.22-.72.09-.79-.38a6.86,6.86,0,0,1,0-1,37.92,37.92,0,0,0,0-4.12,2.2,2.2,0,0,0-2.09-2.21,2.25,2.25,0,0,0-2.06,2.25,32.42,32.42,0,0,0,0,3.92c0,.55.31,1.29-.26,1.54-.32.14-.93-.34-1.39-.58s-.62-.46-1-.63c-.8-.39-1.53-.14-1.69.72a6.58,6.58,0,0,0,0,2.67,26.45,26.45,0,0,0,1.36,3.6c.25.61.61,1.17.83,1.78a1.31,1.31,0,0,1,0,1.06c-.17.19-.69.14-1,.1s-1-.27-1.45-.34a1.34,1.34,0,0,0-1.71,1.28,4.61,4.61,0,0,0,.1,1.68,7.76,7.76,0,0,0,3.53,5,1.91,1.91,0,0,1,1.1,2,2,2,0,0,1-1.64,1.77,1.62,1.62,0,0,0-1,2.72,13.32,13.32,0,0,0,4.17,3.52,8.43,8.43,0,0,1,1,.94l-.13.17c-1.6.06-3.2.15-4.8.16-.27,0-.58-.3-.82-.53a34.42,34.42,0,0,1-9.24-14.67c-.3-.9-.53-1.83-.76-2.74a5,5,0,0,1-.08-.78l.21-.07a5.26,5.26,0,0,1,.31.7,35.63,35.63,0,0,0,8.77,15.58,5.55,5.55,0,0,1,.48.66l.18-.15a3.23,3.23,0,0,0-.14-.48,7.14,7.14,0,0,1-.13-5.43c.26-.8.54-1.58.82-2.37.2-.55.25-1.08-.31-1.45a1.25,1.25,0,0,0-1.61.46c-.23.31-.38.68-.62,1a4.61,4.61,0,0,1-.69.58,2.65,2.65,0,0,1-.3-.91c0-.74.19-1.48.31-2.22a22.6,22.6,0,0,0,.42-2.89,7.77,7.77,0,0,0-.39-2.44c-.19-.61-.72-.65-1.16-.16s-.89,1.08-1.32,1.64a4.26,4.26,0,0,0-.34.67l-.36-.19a2.83,2.83,0,0,1-.17-.85,19.3,19.3,0,0,1,.36-2c.16-.73.4-1.44.54-2.17A1.49,1.49,0,0,0,28,32.56c-.55-.23-1,0-1.53.68-.16.21-.33.42-.61.76a4.29,4.29,0,0,1-.23-.78c0-.45,0-.91,0-1.36-.06-.64-.16-1.29-.87-1.56a2,2,0,0,0-2.23.33,2.89,2.89,0,0,0-1,2.16c0,.36.05.72.07,1.08,0,.78-.2,1-1,.84s-1.19.24-1.19,1.13A5.06,5.06,0,0,0,21,39.32c.44.46.9.9,1.29,1.39.14.18.24.59.14.7a1,1,0,0,1-.76.28,6.2,6.2,0,0,1-1.21-.42.9.9,0,0,0-1.27.53,2.05,2.05,0,0,0,.52,2.59,26.13,26.13,0,0,0,2.93,1.79,9.33,9.33,0,0,1,1.14.7c.15.12.16.42.24.64a2.6,2.6,0,0,1-.63.11,5.65,5.65,0,0,1-.72-.18A1.39,1.39,0,0,0,21,49.41,4.92,4.92,0,0,0,22.13,51a11.13,11.13,0,0,0,5.25,2.83c1.79.44,3.55,1,5.32,1.56l0,.23c-1,.11-1.91.19-2.86.34Q26.38,56.5,23,57.1a.82.82,0,0,1-.92-.33c-6-7.39-7.6-15.65-4.3-24.53S27.7,18,37.09,16.47A24.41,24.41,0,0,1,64.93,35.72ZM41.24,54.94a2.21,2.21,0,0,1-.27.38c-.11-.13-.29-.26-.31-.4a12.22,12.22,0,0,1,0-1.36q0-11,.08-22.07a3.55,3.55,0,0,1,.13-.67h.26a4.67,4.67,0,0,1,.1.69q0,11.55.05,23.09A.89.89,0,0,1,41.24,54.94ZM32.72,7.71c.22,1,.41,2,.65,3a1.76,1.76,0,0,0,.51,1,1.18,1.18,0,0,0,1.05.05,1.16,1.16,0,0,0,.47-.93c-.09-.87-.31-1.73-.48-2.6-.06-.29-.12-.57-.19-.92L35.84,7c.25,1.35.57,2.65.7,4,.1,1-.63,1.76-1.76,2a1.82,1.82,0,0,1-2.24-1.19c-.4-1.24-.64-2.53-1-3.85ZM27.84,9.3a1.45,1.45,0,0,1,1.65.17,1.34,1.34,0,0,1,.4,1.66,1.69,1.69,0,0,1,1.25,1.39,1.41,1.41,0,0,1-.69,1.57c-.82.45-1.7.81-2.6,1.23l-2.18-5.1ZM19.4,15.13c.93.4,1.91.69,3.06,1.1l-2.11-2.65.83-.69,3.43,4.25a1.06,1.06,0,0,1-1.46.45c-1-.39-2-.67-3.1-1.06l2.1,2.64-.82.71-3.42-4.25A1.08,1.08,0,0,1,19.4,15.13Zm-3.15,2,.83.69-1.64,1.94.67.61,1-1.1.8.71L17,21.11l1,.84,1.76-2,.82.7L18,23.52l-4.18-3.6Zm-3.68,4.53.93.56-1.28,2.19.77.47.8-1.24.91.53L14,25.48l1.08.66,1.4-2.28.91.57-1.93,3.24-4.74-2.83ZM9.19,28.22a1.53,1.53,0,0,1,1.64-.94,1.75,1.75,0,0,1,1.57,1.29c0,.11.05.21.09.37l2.31-.21c-.27,1.18-.28,1.19-1.39,1.3l-.54,0c-.74.08-.74.08-1,.91l1.86.74-.38,1L8.19,30.79C8.53,29.9,8.82,29,9.19,28.22Zm4.36,19.71c-.46.37-.7.7-1,.76a.66.66,0,0,1-.8-.69.67.67,0,0,1,.74-.76C12.8,47.28,13.06,47.6,13.55,47.93ZM7.24,34.7A1.93,1.93,0,0,1,8.7,33.24l.37.91c-.24.25-.63.46-.67.72a1.82,1.82,0,0,0,.22,1.24,2.18,2.18,0,0,0,2.45.41,1.86,1.86,0,0,0,.6-1.1c0-.23-.27-.53-.51-1l-.34,1-1-.16.32-1.87c2.05,0,3.2,1.4,2.5,3.07-.51,1.23-2.07,1.71-3.71,1.15A2.34,2.34,0,0,1,7.24,34.7Zm5.25,6.23v.33c-.31.19-.63.53-.92.51a1,1,0,0,1-.64-.73,1,1,0,0,1,.69-.68C11.9,40.35,12.2,40.72,12.49,40.93ZM7.16,45.76A2.44,2.44,0,0,1,7.6,43l.69.52A10,10,0,0,0,8.08,45c0,.18.27.35.41.53.16-.15.41-.27.47-.45.15-.45.2-.93.33-1.38a1.51,1.51,0,0,1,1.52-1.21,1.56,1.56,0,0,1,1.59,1.13,2.69,2.69,0,0,1-.58,2.93L11.16,46a12,12,0,0,0,.27-1.73c0-.21-.31-.42-.48-.63-.19.18-.48.32-.56.55a10.84,10.84,0,0,0-.31,1.32,1.4,1.4,0,0,1-1.31,1.17A1.54,1.54,0,0,1,7.16,45.76Zm2.14,8,2.52-1a6.19,6.19,0,0,0,.81-.34.92.92,0,0,0,.49-1.25.89.89,0,0,0-1.2-.58c-.82.25-1.62.58-2.42.87l-.93.33-.39-1c1.2-.43,2.33-.9,3.49-1.24a1.92,1.92,0,0,1,2.52,1.33,2,2,0,0,1-1.07,2.61,4.26,4.26,0,0,1-.49.22l-3,1.1Zm21.6,18.53A2.09,2.09,0,0,1,27,70.86c.31-1,.7-2,1.09-3.08l1,.37c-.29.78-.56,1.52-.83,2.26a6.92,6.92,0,0,0-.27.84,1,1,0,0,0,.55,1.18A.93.93,0,0,0,29.79,72a8.13,8.13,0,0,0,.48-1.12c.24-.63.47-1.27.74-2l1,.36C31.62,70.31,31.3,71.3,30.89,72.25Zm4.05-.51c.42.26.91.41,1.32.69A1.53,1.53,0,0,1,36.07,75a2.66,2.66,0,0,1-3.34-1.15l.78-.49,0,.19a16.62,16.62,0,0,0,1.66.56c.15,0,.45-.19.53-.36s-.13-.43-.28-.52c-.42-.26-.89-.43-1.33-.67a1.29,1.29,0,0,1-.69-1.48,1.42,1.42,0,0,1,1.17-1.18A2.49,2.49,0,0,1,37.17,71l-.73.51a6.19,6.19,0,0,0-1.19-.61c-.22-.06-.5.15-.76.25C34.64,71.36,34.75,71.62,34.94,71.75Zm6.65,3.78A2.18,2.18,0,0,1,38.79,74a3.22,3.22,0,0,1,.28-2.68,2.12,2.12,0,0,1,2.14-1,1.83,1.83,0,0,1,1.66,1.24c-.52.33-.93.56-1.44,0-.34-.39-1.09-.15-1.41.32a2.27,2.27,0,0,0,.08,2.32,1,1,0,0,0,1.8-.27l-.74-.1v-.93H42.9A2,2,0,0,1,41.59,75.53Zm7.73-2.17A1.59,1.59,0,0,1,48,74.7c-.79.19-1.59.33-2.46.51l-1.06-5.08c.82-.18,1.58-.36,2.35-.5a1.52,1.52,0,0,1,1.62.43,1.38,1.38,0,0,1,.05,1.66A1.46,1.46,0,0,1,49.32,73.36Zm4.81-.59a2.12,2.12,0,0,1-2.19.15,3.24,3.24,0,0,1-1.44-3.63,2.16,2.16,0,0,1,3.41-1c-.29.4-.43.88-1.16.62a1,1,0,0,0-1.25,1.11,3.51,3.51,0,0,0,.76,1.67c.59.67,1.4.34,1.88-.75l.92.16A1.76,1.76,0,0,1,54.13,72.76Zm11.54-3.88a81,81,0,0,0-50.06,0L12.45,61a70.3,70.3,0,0,1,24.88-5c14.13-.52,25.63,2.3,31.46,5.09ZM72.1,54.53l-4-1.84L67,55l-1-.45,1.55-3.35,5,2.31Zm1.15-3L68,49.87l.33-1.06,5.27,1.64Zm.09-3.15a1.49,1.49,0,0,1-.34.06l-.35-.86c.27-.29.66-.53.7-.82a1.73,1.73,0,0,0-.29-1.21,2.2,2.2,0,0,0-2.4-.35,1.83,1.83,0,0,0-.59,1.1c0,.27.24.59.42,1l-.69.69a2.21,2.21,0,0,1-.85-2.22A2.11,2.11,0,0,1,70.61,44a3.53,3.53,0,0,1,3,.57A2.24,2.24,0,0,1,73.34,48.36Zm.81-6.1h-4.6a1,1,0,0,1,.57-1.37,16.91,16.91,0,0,0,2.42-1.75h-3.1V38.05h5.44a1.08,1.08,0,0,1-.63,1.43c-.84.47-1.63,1-2.57,1.66h3.17C75.18,42.1,75.09,42.25,74.15,42.25Zm6.65-9.63A40.77,40.77,0,0,0,47.43.55C46,.32,44.47.18,43,0H38.64c-1.1.13-2.2.23-3.29.38A39.57,39.57,0,0,0,9.87,14.25C1.16,24.53-1.74,36.43,1,49.61A40.72,40.72,0,0,0,34.21,81c1.47.22,3,.37,4.44.55H43c1.48-.18,3-.3,4.44-.55A39.74,39.74,0,0,0,72.85,66C80.58,56.14,83.15,44.92,80.8,32.62ZM40.78,80A39.26,39.26,0,1,1,80.11,40.79,39.29,39.29,0,0,1,40.78,80ZM46.64,62.3l-2.58-.18.07-1.18h1.45V60l-1.39-.12.06-.84,2.52.12v-1l-3.55-.19-.28,5.18,3.69.2ZM53.75,64a2.27,2.27,0,0,0,1.88-2.13c.19-1.25-.15-2.2-1.11-2.59a19.26,19.26,0,0,0-2.63-.67L51,63.87A19,19,0,0,0,53.75,64Zm-1-4.13c.77.11,1.48.15,1.73.9a1.81,1.81,0,0,1-.38,1.9,1.68,1.68,0,0,1-1.84.25Zm20,11.9v0a.43.43,0,0,0,.35-.39.46.46,0,0,0-.16-.37,1,1,0,0,0-.58-.12,3.36,3.36,0,0,0-.64.05v1.67h.39v-.67h.18c.21,0,.32.08.35.26a1.43,1.43,0,0,0,.13.41h.42a1.27,1.27,0,0,1-.12-.42A.49.49,0,0,0,72.71,71.76Zm-.46-.12h-.18v-.48l.21,0c.24,0,.36.1.36.25S72.46,71.64,72.25,71.64ZM28.43,13.91c.46-.2.82-.37,1.19-.52a.56.56,0,0,0,.29-.88,1,1,0,0,0-.8-.35,5.41,5.41,0,0,0-1.22.51Zm7.84,48.21V61l1.41-.1-.06-1H36.18v-.83l2.43-.12v-1L35,58.08l.24,5.18,3.7-.18,0-1Zm36,7.93A1.68,1.68,0,1,0,74,71.71,1.69,1.69,0,0,0,72.32,70Zm0,3a1.33,1.33,0,1,1,1.27-1.32A1.28,1.28,0,0,1,72.33,73ZM10.91,28.49a.84.84,0,0,0-.76.27,7.47,7.47,0,0,0-.55,1.36l1.24.47a7.43,7.43,0,0,0,.47-1.4A.84.84,0,0,0,10.91,28.49Zm17.93-18c0-.11-.41-.24-.59-.2a7.93,7.93,0,0,0-1.16.48l.39.91a6.63,6.63,0,0,0,1.16-.53A.75.75,0,0,0,28.83,10.5ZM47.59,71a.59.59,0,0,0-.46-.36,12.49,12.49,0,0,0-1.45.28l.22.89a12,12,0,0,0,1.39-.32A.59.59,0,0,0,47.59,71Zm0,1.5a9.25,9.25,0,0,0-1.51.27L46.33,74a8.85,8.85,0,0,0,1.49-.36.78.78,0,0,0,.33-.68A.76.76,0,0,0,47.58,72.48ZM28.3,63l-.64-4.07-1,.13.78,5.13L31,63.66l-.17-1Z" style="fill:#fff"/></g></g></svg>