<svg xmlns="http://www.w3.org/2000/svg" viewBox="0 0 135.71 162"><title>logo</title><g id="Capa_2" data-name="Capa 2"><g id="Layer_1" data-name="Layer 1"><path d="M63.42,102.5A97.61,97.61,0,0,1,16.54,90.57L2,115.71H135.71l-17.36-30A97.68,97.68,0,0,1,63.42,102.5Z" style="fill:#fff"/><path d="M68.86,0l-32,55.37a96.14,96.14,0,0,0,49.4-25.22Z" style="fill:#fff"/><path d="M117.38,84,87.27,31.86A98,98,0,0,1,35.63,57.53L17.51,88.9a95.69,95.69,0,0,0,45.91,11.68A95.77,95.77,0,0,0,117.38,84ZM68.86,53.5,89.61,89.41H48.11Z" style="fill:#fff"/><path d="M43.16,156h1.43l1.58,2.55L47.75,156h1.43v6H47.86v-3.93l-1.69,2.57h0l-1.68-2.55V162h-1.3Z" style="fill:#fff"/><path d="M60.94,155.94h1.22L64.75,162H63.36l-.55-1.35H60.26L59.71,162H58.36Zm1.39,3.54-.8-2-.8,2Z" style="fill:#fff"/><path d="M73.93,156h1.32v4.82h3V162H73.93Z" style="fill:#fff"/><path d="M87.51,156h1.32v4.82h3V162H87.51Z" style="fill:#fff"/><path d="M14.28,135h0a8.44,8.44,0,1,0-1.38,13.25v.7a.38.38,0,0,0,.65.28l.73-.7a.38.38,0,0,0,.12-.28v-1.34h0v-1.12h0v-9.38h0v-1.12a.38.38,0,0,0-.08-.22Zm-1.39,11.34a6.9,6.9,0,1,1,0-10.52Z" style="fill:#fff"/><path d="M101.64,135h0a8.44,8.44,0,1,0-1.38,13.25v.7a.38.38,0,0,0,.65.28l.73-.7a.38.38,0,0,0,.12-.28v-1.34h0v-1.12h0v-9.38h0v-1.12a.38.38,0,0,0-.08-.22Zm-5.84-.82a6.88,6.88,0,0,1,4.45,1.64v10.52a6.9,6.9,0,1,1-4.45-12.16Z" style="fill:#fff"/><path d="M135,136.36v-1.12a.38.38,0,0,0-.08-.22l0,0h0a8.44,8.44,0,1,0-1.38,13.25v.7a.38.38,0,0,0,.65.28l.73-.7a.38.38,0,0,0,.12-.28v-1.34h0v-1.12h0v-9.38Zm-1.5,10a6.9,6.9,0,1,1,0-10.52Z" style="fill:#fff"/><path d="M69.5,139.33v0s0,0,0,0a8.37,8.37,0,0,0-2.34-4.2.38.38,0,0,0-.07-.1,8.44,8.44,0,1,0-5.83,14.53h0c.25,0,.5,0,.74,0h.13c.24,0,.47-.06.71-.1h0a8.39,8.39,0,0,0,5.92-4.48.38.38,0,0,0-.34-.55h-.89a.38.38,0,0,0-.33.19,6.86,6.86,0,0,1-10.9,1.34l13-6.14h0a.38.38,0,0,0,.11-.08h0a.38.38,0,0,0,.07-.12h0A.38.38,0,0,0,69.5,139.33Zm-8.23-5.13a6.87,6.87,0,0,1,6.42,4.44l-12.33,5.93a6.86,6.86,0,0,1,5.91-10.37Z" style="fill:#fff"/><path d="M42.89,132.64a8.36,8.36,0,0,0-5.27,1.87,8.41,8.41,0,0,0-13.7,6.55s0,.05,0,.08v7.76a.38.38,0,0,0,.64.29l.8-.7a.38.38,0,0,0,.13-.29v-7.38a6.86,6.86,0,0,1,11.35-5v13a.38.38,0,0,0,.65.28l.73-.7a.38.38,0,0,0,.12-.28V136a6.85,6.85,0,0,1,11.42,4.78v8.19a.38.38,0,0,0,.63.29l.81-.7a.38.38,0,0,0,.13-.29v-7.14A8.44,8.44,0,0,0,42.89,132.64Z" style="fill:#fff"/><path d="M77,132.64A8.36,8.36,0,0,0,72.43,134v-.77a.38.38,0,0,0-.68-.25l-.73.88a.38.38,0,0,0-.09.25v14.81a.38.38,0,0,0,.65.28l.73-.7a.38.38,0,0,0,.12-.28V136a6.85,6.85,0,0,1,11.42,4.78v8.19a.38.38,0,0,0,.63.29l.81-.7a.38.38,0,0,0,.13-.29v-7.14A8.44,8.44,0,0,0,77,132.64Z" style="fill:#fff"/><path d="M110.39,132.64a8.36,8.36,0,0,0-4.57,1.36v-.77a.38.38,0,0,0-.68-.25l-.73.88a.38.38,0,0,0-.09.25v14.81a.38.38,0,0,0,.65.28l.73-.7a.38.38,0,0,0,.12-.28V136a6.81,6.81,0,0,1,4.57-1.76,6.9,6.9,0,0,1,6.59,5,.38.38,0,0,0,.27.26h.1a.38.38,0,0,0,.27-.11l.63-.63a.38.38,0,0,0,.09-.4A8.43,8.43,0,0,0,110.39,132.64Z" style="fill:#fff"/><path d="M22.09,148.18a6.88,6.88,0,0,1-3.76-6.11.36.36,0,0,0,0-.05V130.08a.38.38,0,0,0-.64-.28l-.77.72a.38.38,0,0,0-.12.28V142a8.45,8.45,0,0,0,4.37,7.39.38.38,0,0,0,.46-.06l.57-.57a.38.38,0,0,0-.1-.61Z" style="fill:#fff"/></g></g></svg>